<mxfile host="app.diagrams.net" modified="2023-09-03T10:19:13.086Z" agent="Mozilla/5.0 (Windows NT 10.0; Win64; x64) AppleWebKit/537.36 (KHTML, like Gecko) Chrome/116.0.0.0 Safari/537.36 Edg/116.0.1938.69" etag="-gY4e4SEGSzMfPtAynph" version="21.3.2" type="device">
  <diagram name="Page-1" id="mguCj2cKq7bsOL97bhls">
    <mxGraphModel dx="1042" dy="569" grid="1" gridSize="10" guides="1" tooltips="1" connect="1" arrows="1" fold="1" page="1" pageScale="1" pageWidth="850" pageHeight="1100" math="0" shadow="0">
      <root>
        <mxCell id="0" />
        <mxCell id="1" parent="0" />
        <mxCell id="fIXFhrKanXtExy9UGcHT-1" value="Пользователь" style="shape=umlActor;verticalLabelPosition=bottom;verticalAlign=top;html=1;outlineConnect=0;" parent="1" vertex="1">
          <mxGeometry x="100" y="120" width="30" height="60" as="geometry" />
        </mxCell>
        <mxCell id="fIXFhrKanXtExy9UGcHT-4" value="Менеджер" style="shape=umlActor;verticalLabelPosition=bottom;verticalAlign=top;html=1;outlineConnect=0;" parent="1" vertex="1">
          <mxGeometry x="110" y="440" width="30" height="60" as="geometry" />
        </mxCell>
        <mxCell id="fIXFhrKanXtExy9UGcHT-5" value="" style="whiteSpace=wrap;html=1;aspect=fixed;fillColor=none;" parent="1" vertex="1">
          <mxGeometry x="200" y="60" width="520" height="520" as="geometry" />
        </mxCell>
        <mxCell id="fIXFhrKanXtExy9UGcHT-6" value="Система авиакомпании" style="text;html=1;strokeColor=none;fillColor=none;align=center;verticalAlign=middle;whiteSpace=wrap;rounded=0;" parent="1" vertex="1">
          <mxGeometry x="640" y="67.5" width="60" height="30" as="geometry" />
        </mxCell>
        <mxCell id="fIXFhrKanXtExy9UGcHT-8" value="" style="endArrow=classic;html=1;rounded=0;" parent="1" target="fIXFhrKanXtExy9UGcHT-9" edge="1">
          <mxGeometry width="50" height="50" relative="1" as="geometry">
            <mxPoint x="150" y="150" as="sourcePoint" />
            <mxPoint x="335" y="129" as="targetPoint" />
          </mxGeometry>
        </mxCell>
        <mxCell id="fIXFhrKanXtExy9UGcHT-9" value="" style="ellipse;whiteSpace=wrap;html=1;" parent="1" vertex="1">
          <mxGeometry x="385" y="67.5" width="120" height="52.5" as="geometry" />
        </mxCell>
        <mxCell id="fIXFhrKanXtExy9UGcHT-10" value="Просмотр списка активных рейсов" style="text;html=1;strokeColor=none;fillColor=none;align=center;verticalAlign=middle;whiteSpace=wrap;rounded=0;" parent="1" vertex="1">
          <mxGeometry x="390" y="77" width="110" height="35" as="geometry" />
        </mxCell>
        <mxCell id="fIXFhrKanXtExy9UGcHT-11" value="" style="ellipse;whiteSpace=wrap;html=1;" parent="1" vertex="1">
          <mxGeometry x="500" y="147.5" width="110" height="70" as="geometry" />
        </mxCell>
        <mxCell id="fIXFhrKanXtExy9UGcHT-12" value="Просмотр числа свободных мест на рейсе" style="text;html=1;strokeColor=none;fillColor=none;align=center;verticalAlign=middle;whiteSpace=wrap;rounded=0;" parent="1" vertex="1">
          <mxGeometry x="500" y="165" width="110" height="35" as="geometry" />
        </mxCell>
        <mxCell id="fIXFhrKanXtExy9UGcHT-13" value="" style="endArrow=classic;html=1;rounded=0;exitX=1;exitY=0.5;exitDx=0;exitDy=0;entryX=0.371;entryY=0.017;entryDx=0;entryDy=0;entryPerimeter=0;strokeColor=none;dashed=1;" parent="1" source="fIXFhrKanXtExy9UGcHT-10" target="fIXFhrKanXtExy9UGcHT-11" edge="1">
          <mxGeometry width="50" height="50" relative="1" as="geometry">
            <mxPoint x="390" y="370" as="sourcePoint" />
            <mxPoint x="440" y="320" as="targetPoint" />
          </mxGeometry>
        </mxCell>
        <mxCell id="fIXFhrKanXtExy9UGcHT-14" style="edgeStyle=orthogonalEdgeStyle;rounded=0;orthogonalLoop=1;jettySize=auto;html=1;exitX=0.5;exitY=1;exitDx=0;exitDy=0;" parent="1" source="fIXFhrKanXtExy9UGcHT-12" target="fIXFhrKanXtExy9UGcHT-12" edge="1">
          <mxGeometry relative="1" as="geometry" />
        </mxCell>
        <mxCell id="fIXFhrKanXtExy9UGcHT-15" value="" style="ellipse;whiteSpace=wrap;html=1;" parent="1" vertex="1">
          <mxGeometry x="385" y="218.38" width="120" height="52.5" as="geometry" />
        </mxCell>
        <mxCell id="fIXFhrKanXtExy9UGcHT-16" value="Бронирование и возврат билета" style="text;html=1;strokeColor=none;fillColor=none;align=center;verticalAlign=middle;whiteSpace=wrap;rounded=0;" parent="1" vertex="1">
          <mxGeometry x="390" y="226.88" width="110" height="35" as="geometry" />
        </mxCell>
        <mxCell id="fIXFhrKanXtExy9UGcHT-17" value="" style="endArrow=classic;html=1;rounded=0;entryX=0;entryY=0;entryDx=0;entryDy=0;" parent="1" target="fIXFhrKanXtExy9UGcHT-16" edge="1">
          <mxGeometry width="50" height="50" relative="1" as="geometry">
            <mxPoint x="150" y="150" as="sourcePoint" />
            <mxPoint x="300" y="240" as="targetPoint" />
          </mxGeometry>
        </mxCell>
        <mxCell id="fIXFhrKanXtExy9UGcHT-19" value="" style="endArrow=classic;html=1;rounded=0;exitX=0.5;exitY=1;exitDx=0;exitDy=0;entryX=1;entryY=0;entryDx=0;entryDy=0;" parent="1" source="fIXFhrKanXtExy9UGcHT-11" target="fIXFhrKanXtExy9UGcHT-15" edge="1">
          <mxGeometry width="50" height="50" relative="1" as="geometry">
            <mxPoint x="390" y="370" as="sourcePoint" />
            <mxPoint x="440" y="320" as="targetPoint" />
          </mxGeometry>
        </mxCell>
        <mxCell id="fIXFhrKanXtExy9UGcHT-23" value="" style="endArrow=classic;html=1;rounded=0;dashed=1;dashPattern=8 8;entryX=1;entryY=0.75;entryDx=0;entryDy=0;exitX=0.5;exitY=0;exitDx=0;exitDy=0;" parent="1" source="fIXFhrKanXtExy9UGcHT-11" target="fIXFhrKanXtExy9UGcHT-10" edge="1">
          <mxGeometry width="50" height="50" relative="1" as="geometry">
            <mxPoint x="450" y="440" as="sourcePoint" />
            <mxPoint x="500" y="390" as="targetPoint" />
          </mxGeometry>
        </mxCell>
        <mxCell id="fIXFhrKanXtExy9UGcHT-24" value="&amp;lt;&amp;lt;включает&amp;gt;&amp;gt;" style="text;html=1;strokeColor=none;fillColor=none;align=center;verticalAlign=middle;whiteSpace=wrap;rounded=0;" parent="1" vertex="1">
          <mxGeometry x="532.5" y="110" width="60" height="30" as="geometry" />
        </mxCell>
        <mxCell id="fIXFhrKanXtExy9UGcHT-25" value="" style="endArrow=classic;html=1;rounded=0;" parent="1" target="fIXFhrKanXtExy9UGcHT-26" edge="1">
          <mxGeometry width="50" height="50" relative="1" as="geometry">
            <mxPoint x="160" y="470" as="sourcePoint" />
            <mxPoint x="277.5" y="381.25" as="targetPoint" />
          </mxGeometry>
        </mxCell>
        <mxCell id="fIXFhrKanXtExy9UGcHT-26" value="" style="ellipse;whiteSpace=wrap;html=1;" parent="1" vertex="1">
          <mxGeometry x="395" y="355.25" width="120" height="80" as="geometry" />
        </mxCell>
        <mxCell id="fIXFhrKanXtExy9UGcHT-27" value="Мониторинг пользователей, истории полётов, авиапарка" style="text;html=1;strokeColor=none;fillColor=none;align=center;verticalAlign=middle;whiteSpace=wrap;rounded=0;" parent="1" vertex="1">
          <mxGeometry x="400" y="374.75" width="110" height="35" as="geometry" />
        </mxCell>
        <mxCell id="fIXFhrKanXtExy9UGcHT-28" value="" style="endArrow=classic;html=1;rounded=0;" parent="1" target="fIXFhrKanXtExy9UGcHT-29" edge="1">
          <mxGeometry width="50" height="50" relative="1" as="geometry">
            <mxPoint x="160" y="470" as="sourcePoint" />
            <mxPoint x="422.5" y="418.75" as="targetPoint" />
          </mxGeometry>
        </mxCell>
        <mxCell id="fIXFhrKanXtExy9UGcHT-29" value="" style="ellipse;whiteSpace=wrap;html=1;" parent="1" vertex="1">
          <mxGeometry x="375" y="439.5" width="120" height="68.75" as="geometry" />
        </mxCell>
        <mxCell id="fIXFhrKanXtExy9UGcHT-30" value="Добавление новых рейсов и самолётов" style="text;html=1;strokeColor=none;fillColor=none;align=center;verticalAlign=middle;whiteSpace=wrap;rounded=0;" parent="1" vertex="1">
          <mxGeometry x="380" y="461.5" width="110" height="35" as="geometry" />
        </mxCell>
        <mxCell id="fIXFhrKanXtExy9UGcHT-31" value="" style="endArrow=classic;html=1;rounded=0;" parent="1" target="fIXFhrKanXtExy9UGcHT-32" edge="1">
          <mxGeometry width="50" height="50" relative="1" as="geometry">
            <mxPoint x="160" y="470" as="sourcePoint" />
            <mxPoint x="412.5" y="568.75" as="targetPoint" />
          </mxGeometry>
        </mxCell>
        <mxCell id="fIXFhrKanXtExy9UGcHT-32" value="" style="ellipse;whiteSpace=wrap;html=1;" parent="1" vertex="1">
          <mxGeometry x="355" y="513.5" width="120" height="60" as="geometry" />
        </mxCell>
        <mxCell id="fIXFhrKanXtExy9UGcHT-33" value="Добавление новых транспортных узлов" style="text;html=1;strokeColor=none;fillColor=none;align=center;verticalAlign=middle;whiteSpace=wrap;rounded=0;" parent="1" vertex="1">
          <mxGeometry x="361" y="528.5" width="110" height="35" as="geometry" />
        </mxCell>
        <mxCell id="fIXFhrKanXtExy9UGcHT-34" value="" style="endArrow=classic;html=1;rounded=0;exitX=1;exitY=0.5;exitDx=0;exitDy=0;" parent="1" source="fIXFhrKanXtExy9UGcHT-27" target="fIXFhrKanXtExy9UGcHT-35" edge="1">
          <mxGeometry width="50" height="50" relative="1" as="geometry">
            <mxPoint x="340" y="590" as="sourcePoint" />
            <mxPoint x="382.5" y="603.75" as="targetPoint" />
          </mxGeometry>
        </mxCell>
        <mxCell id="fIXFhrKanXtExy9UGcHT-35" value="" style="ellipse;whiteSpace=wrap;html=1;" parent="1" vertex="1">
          <mxGeometry x="547.5" y="410" width="105" height="70" as="geometry" />
        </mxCell>
        <mxCell id="fIXFhrKanXtExy9UGcHT-36" value="Статистический анализ данных" style="text;html=1;strokeColor=none;fillColor=none;align=center;verticalAlign=middle;whiteSpace=wrap;rounded=0;" parent="1" vertex="1">
          <mxGeometry x="545" y="427.5" width="110" height="35" as="geometry" />
        </mxCell>
        <mxCell id="fIXFhrKanXtExy9UGcHT-46" value="" style="endArrow=classic;html=1;rounded=0;entryX=0;entryY=1;entryDx=0;entryDy=0;" parent="1" target="fIXFhrKanXtExy9UGcHT-9" edge="1">
          <mxGeometry width="50" height="50" relative="1" as="geometry">
            <mxPoint x="160" y="470" as="sourcePoint" />
            <mxPoint x="420" y="300" as="targetPoint" />
          </mxGeometry>
        </mxCell>
        <mxCell id="IKExKe8eIzAEsjHXs8DD-5" value="" style="ellipse;whiteSpace=wrap;html=1;" parent="1" vertex="1">
          <mxGeometry x="245" y="300.88" width="120" height="60" as="geometry" />
        </mxCell>
        <mxCell id="IKExKe8eIzAEsjHXs8DD-8" value="Операции с&amp;nbsp; заказом услуги перевозки багажа" style="text;html=1;strokeColor=none;fillColor=none;align=center;verticalAlign=middle;whiteSpace=wrap;rounded=0;" parent="1" vertex="1">
          <mxGeometry x="255" y="310" width="100" height="41.75" as="geometry" />
        </mxCell>
        <mxCell id="IKExKe8eIzAEsjHXs8DD-9" value="" style="endArrow=classic;html=1;rounded=0;dashed=1;exitX=1;exitY=0;exitDx=0;exitDy=0;entryX=0.388;entryY=1.082;entryDx=0;entryDy=0;entryPerimeter=0;" parent="1" source="IKExKe8eIzAEsjHXs8DD-8" target="fIXFhrKanXtExy9UGcHT-15" edge="1">
          <mxGeometry width="50" height="50" relative="1" as="geometry">
            <mxPoint x="400" y="330" as="sourcePoint" />
            <mxPoint x="450" y="280" as="targetPoint" />
          </mxGeometry>
        </mxCell>
        <mxCell id="IKExKe8eIzAEsjHXs8DD-13" value="&amp;lt;&amp;lt;расширяет&amp;gt;&amp;gt;" style="text;html=1;strokeColor=none;fillColor=none;align=center;verticalAlign=middle;whiteSpace=wrap;rounded=0;" parent="1" vertex="1">
          <mxGeometry x="425" y="280" width="60" height="30" as="geometry" />
        </mxCell>
      </root>
    </mxGraphModel>
  </diagram>
</mxfile>
